{"title":"Rise.of.the.Guardians.2012.TS.NEW.SOURCE.x264.AAC-UNiQUE","uid":7877497,"size":1562800496,"categoryP":"video","categoryS":"movies","magnet":"?xt=urn:btih:ad11eb1a0aeed57116225fb341dc61883c22aeba&amp;dn=Rise.of.the.Guardians.2012.TS.NEW.SOURCE.x264.AAC-UNiQUE&amp;tr=udp%3A%2F%2Ftracker.openbittorrent.com%3A80&amp;tr=udp%3A%2F%2Fopen.demonii.com%3A1337&amp;tr=udp%3A%2F%2Ftracker.coppersurfer.tk%3A6969&amp;tr=udp%3A%2F%2Fexodus.desync.com%3A6969","seeders":10,"leechers":2,"uploader":"Acesn8s","files":-1,"time":1354382775,"description":".........Why be the same as everyone else when YOU can be UNiQUE.........\n\n\n\n\nGeneral\nComplete name : Rise of the Guardians 2012 TS NEW SOURCE x264 AAC-UNiQUE.mp4\nFormat : MPEG-4\nFormat profile : Base Media\nCodec ID : isom\nFile size : 1.44 GiB\nDuration : 1h 27mn\nOverall bit rate mode : Variable\nOverall bit rate : 2 351 Kbps\nEncoded date : UTC 2012-11-29 12:32:49\n\nVideo\nID : 1\nFormat : AVC\nFormat/Info : Advanced Video Codec\nFormat profile : &lt;a class=&quot;__cf_email__&quot; href=&quot;/cdn-cgi/l/email-protection&quot; data-cfemail=&quot;f3bb9a949bb3bfc7ddc2&quot;&gt;[email&amp;#160;protected]&lt;/a&gt;&lt;script cf-hash='f9e31' type=&quot;text/javascript&quot;&gt;\n/* &lt;![CDATA[ */!function(){try{var t=&quot;currentScript&quot;in document?document.currentScript:function(){for(var t=document.getElementsByTagName(&quot;script&quot;),e=t.length;e--;)if(t[e].getAttribute(&quot;cf-hash&quot;))return t[e]}();if(t&amp;&amp;t.previousSibling){var e,r,n,i,c=t.previousSibling,a=c.getAttribute(&quot;data-cfemail&quot;);if(a){for(e=&quot;&quot;,r=parseInt(a.substr(0,2),16),n=2;a.length-n;n+=2)i=parseInt(a.substr(n,2),16)^r,e+=String.fromCharCode(i);e=document.createTextNode(e),c.parentNode.replaceChild(e,c)}}}catch(u){}}();/* ]]&gt; */&lt;/script&gt;\nFormat settings, CABAC : Yes\nFormat settings, ReFrames : 3 frames\nCodec ID : avc1\nCodec ID/Info : Advanced Video Coding\nDuration : 1h 27mn\nBit rate mode : Variable\nBit rate : 2 212 Kbps\nMaximum bit rate : 40.0 Mbps\nWidth : 720 pixels\nHeight : 354 pixels\nDisplay aspect ratio : 2.034\nFrame rate mode : Constant\nFrame rate : 29.970 fps\nColor space : YUV\nChroma subsampling : 4:2:0\nBit depth : 8 bits\nScan type : Progressive\nBits/(Pixel*Frame) : 0.290\nStream size : 1.35 GiB (94%)\nWriting library : x264 core 129 r2230 1cffe9f\n\nAudio\nID : 2\nFormat : AAC\nFormat/Info : Advanced Audio Codec\nFormat profile : LC\nCodec ID : 40\nDuration : 1h 27mn\nBit rate mode : Variable\nBit rate : 135 Kbps\nMaximum bit rate : 153 Kbps\nChannel(s) : 2 channels\nChannel positions : Front: L R\nSampling rate : 48.0 KHz\nCompression mode : Lossy\nStream size : 84.2 MiB (6%)\nLanguage : English\nEncoded date : UTC 2012-11-29 12:34:50\n\nSources : Video - MATiNE 720p files - Thanks!\n: Audio - echo/MATiNE\n\nSample Included : Yes.\n\nStoryline\nWhen the evil spirit Pitch launches an assault on Earth, the Immortal Guardians team up to protect the innocence of children all around the world.\n\n\nNotes:\nSweet.., ok now the source was a bit bright and had a bit of camera movement, some borders do still show now and again, and theres a bit of scoll flicker not always but some to mention, anyways i lowered the bright a bit then just messed with crop, resize, contrast, hue, levels then sharpened and to me this looks mint. Audio is good enough line but we used 90 secs of cam audio to fill gaps in our vid.\n\nEnjoy another KICKASS UNiQUE RELEASE !!!!!!\n\n &lt;a href=&quot;\nhttp://www.shotpix.com/images/91378507660272686595.png&quot; rel=&quot;nofollow&quot; target=&quot;_NEW&quot;&gt;\nhttp://www.shotpix.com/images/91378507660272686595.png&lt;/a&gt;\n &lt;a href=&quot;\nhttp://www.shotpix.com/images/61526621571921660923.png&quot; rel=&quot;nofollow&quot; target=&quot;_NEW&quot;&gt;\nhttp://www.shotpix.com/images/61526621571921660923.png&lt;/a&gt;\n &lt;a href=&quot;\nhttp://www.shotpix.com/images/54205663771500673045.png&quot; rel=&quot;nofollow&quot; target=&quot;_NEW&quot;&gt;\nhttp://www.shotpix.com/images/54205663771500673045.png&lt;/a&gt;\n &lt;a href=&quot;\nhttp://www.shotpix.com/images/70046164223923183059.png&quot; rel=&quot;nofollow&quot; target=&quot;_NEW&quot;&gt;\nhttp://www.shotpix.com/images/70046164223923183059.png&lt;/a&gt;\n &lt;a href=&quot;\nhttp://www.shotpix.com/images/56727330999300509391.png&quot; rel=&quot;nofollow&quot; target=&quot;_NEW&quot;&gt;\nhttp://www.shotpix.com/images/56727330999300509391.png&lt;/a&gt;","torrent":{"xt":"urn:btih:ad11eb1a0aeed57116225fb341dc61883c22aeba","amp;dn":"Rise.of.the.Guardians.2012.TS.NEW.SOURCE.x264.AAC-UNiQUE","amp;tr":["udp%3A%2F%2Ftracker.openbittorrent.com%3A80","udp%3A%2F%2Fopen.demonii.com%3A1337","udp%3A%2F%2Ftracker.coppersurfer.tk%3A6969","udp%3A%2F%2Fexodus.desync.com%3A6969"],"infoHash":"ad11eb1a0aeed57116225fb341dc61883c22aeba","infoHashBuffer":{"type":"Buffer","data":[173,17,235,26,10,238,213,113,22,34,95,179,65,220,97,136,60,34,174,186]},"announce":[],"urlList":[]}}